<?xml version="1.0" encoding="UTF-8"?>
<svg id="Layer_1" data-name="Layer 1" xmlns="http://www.w3.org/2000/svg" xmlns:xlink="http://www.w3.org/1999/xlink" viewBox="0 0 577 577">
  <defs>
    <style>
      .cls-1 {
        fill: url(#linear-gradient-2);
      }

      .cls-2 {
        fill: #101418;
        stroke: #231f20;
        stroke-miterlimit: 10;
      }

      .cls-3 {
        fill: #121519;
      }

      .cls-4 {
        fill: url(#linear-gradient-3);
      }

      .cls-5 {
        fill: url(#linear-gradient);
      }

      .cls-6 {
        fill: url(#linear-gradient-4);
      }
    </style>
    <linearGradient id="linear-gradient" x1="101.52" y1="126.25" x2="319.57" y2="126.25" gradientUnits="userSpaceOnUse">
      <stop offset=".25" stop-color="#931d83"/>
      <stop offset=".4" stop-color="#8f1c81"/>
      <stop offset=".54" stop-color="#841a7c"/>
      <stop offset=".67" stop-color="#721674"/>
      <stop offset=".8" stop-color="#581169"/>
      <stop offset=".85" stop-color="#4c0f64"/>
    </linearGradient>
    <linearGradient id="linear-gradient-2" x1="151.26" y1="211.1" x2="151.76" y2="449.68" gradientUnits="userSpaceOnUse">
      <stop offset="0" stop-color="#931d83"/>
      <stop offset=".39" stop-color="#681571"/>
      <stop offset=".72" stop-color="#420e61"/>
    </linearGradient>
    <linearGradient id="linear-gradient-3" x1="265.08" y1="387.48" x2="521.23" y2="387.48" gradientTransform="translate(-24.63 -36.51) rotate(3.29) scale(1.02 1.01) skewX(.96)" gradientUnits="userSpaceOnUse">
      <stop offset=".22" stop-color="#931d83"/>
      <stop offset=".53" stop-color="#48095a"/>
    </linearGradient>
    <linearGradient id="linear-gradient-4" x1="-92.16" y1="323.62" x2="119.06" y2="108.12" gradientTransform="translate(303.61 14.37) rotate(.62)" gradientUnits="userSpaceOnUse">
      <stop offset=".29" stop-color="#931d83"/>
      <stop offset=".79" stop-color="#48095a"/>
    </linearGradient>
  </defs>
  <rect class="cls-2" x=".5" y=".5" width="576" height="0"/>
  <path class="cls-5" d="m117.59,158.97c50.33-.69,130.65-3.1,180.98-3.79,22.29-20.08,39.29-41.38,61.58-61.46-72.75-.82-170.21,1.28-242.96.46.14,21.6.27,43.19.41,64.79Z"/>
  <rect class="cls-1" x="117.18" y="142.89" width="68.6" height="340.04"/>
  <path class="cls-4" d="m399.72,486.09c-48.6-45.83-119.18-106.39-167.78-152.22l27.49-65.27c73.17,67.95,155.74,146.38,228.91,214.32-33.42-1.11-56.33,2.46-88.63,3.16Z"/>
  <path class="cls-6" d="m483.15,92.7c-92.07,105.19-193.96,201.95-286.03,307.15-.41-32.91,1.03-64.1.62-97.01,66.35-72.55,134.94-136.1,201.29-208.65,26.13.27,57.98-1.75,84.11-1.48Z"/>
  <rect class="cls-3" x="61.95" y="482.93" width="444.85" height="57.98"/>
  <rect class="cls-3" x="70.11" y="36.5" width="444.85" height="57.98"/>
  <rect class="cls-3" x="194.08" y="278.1" width="5.94" height="132.11"/>
  <polygon class="cls-3" points="298.49 164.69 290.35 157.46 358.66 87.71 366.8 94.94 298.49 164.69"/>
  <polygon class="cls-3" points="210.3 171.93 204.97 160.65 283.37 73.6 288.7 84.88 210.3 171.93"/>
</svg>